<mxfile host="Electron" agent="Mozilla/5.0 (Windows NT 10.0; Win64; x64) AppleWebKit/537.36 (KHTML, like Gecko) draw.io/28.1.2 Chrome/138.0.7204.243 Electron/37.4.0 Safari/537.36" version="28.1.2">
  <diagram name="Page-1" id="e7e014a7-5840-1c2e-5031-d8a46d1fe8dd">
    <mxGraphModel dx="1371" dy="815" grid="1" gridSize="10" guides="1" tooltips="1" connect="1" arrows="1" fold="1" page="1" pageScale="1" pageWidth="1169" pageHeight="826" background="none" math="0" shadow="0">
      <root>
        <mxCell id="0" />
        <mxCell id="1" parent="0" />
        <mxCell id="2" value="Quản lý xe buýt" style="swimlane;whiteSpace=wrap" parent="1" vertex="1">
          <mxGeometry x="164.5" y="128" width="280" height="570" as="geometry" />
        </mxCell>
        <mxCell id="5" value="" style="ellipse;shape=startState;fillColor=#000000;strokeColor=#ff0000;" parent="2" vertex="1">
          <mxGeometry x="100" y="40" width="30" height="30" as="geometry" />
        </mxCell>
        <mxCell id="6" value="" style="edgeStyle=elbowEdgeStyle;elbow=horizontal;verticalAlign=bottom;endArrow=open;endSize=8;strokeColor=#FF0000;endFill=1;rounded=0" parent="2" source="5" target="7" edge="1">
          <mxGeometry x="100" y="40" as="geometry">
            <mxPoint x="115" y="110" as="targetPoint" />
          </mxGeometry>
        </mxCell>
        <mxCell id="6yHkhltPlA_6SUZzHa7a-82" style="edgeStyle=orthogonalEdgeStyle;rounded=0;orthogonalLoop=1;jettySize=auto;html=1;" edge="1" parent="2" source="7">
          <mxGeometry relative="1" as="geometry">
            <mxPoint x="285.5" y="117" as="targetPoint" />
          </mxGeometry>
        </mxCell>
        <mxCell id="7" value="Phân công xe/tài xế" style="" parent="2" vertex="1">
          <mxGeometry x="65.5" y="92" width="110" height="50" as="geometry" />
        </mxCell>
        <mxCell id="3" value="Tài xế" style="swimlane;whiteSpace=wrap" parent="1" vertex="1">
          <mxGeometry x="445" y="128" width="280" height="570" as="geometry" />
        </mxCell>
        <mxCell id="6yHkhltPlA_6SUZzHa7a-76" style="edgeStyle=orthogonalEdgeStyle;rounded=0;orthogonalLoop=1;jettySize=auto;html=1;entryX=0.5;entryY=0;entryDx=0;entryDy=0;" edge="1" parent="3" source="15" target="16">
          <mxGeometry relative="1" as="geometry" />
        </mxCell>
        <mxCell id="15" value="Xem lịch làm việc&#xa; và danh sách học sinh&#xa;" style="" parent="3" vertex="1">
          <mxGeometry x="70.5" y="92" width="140" height="50" as="geometry" />
        </mxCell>
        <mxCell id="6yHkhltPlA_6SUZzHa7a-83" style="edgeStyle=orthogonalEdgeStyle;rounded=0;orthogonalLoop=1;jettySize=auto;html=1;" edge="1" parent="3" source="16">
          <mxGeometry relative="1" as="geometry">
            <mxPoint x="275" y="187" as="targetPoint" />
          </mxGeometry>
        </mxCell>
        <mxCell id="16" value="Khởi hành chuyến đi" style="" parent="3" vertex="1">
          <mxGeometry x="80" y="162" width="120" height="50" as="geometry" />
        </mxCell>
        <mxCell id="6yHkhltPlA_6SUZzHa7a-72" style="edgeStyle=orthogonalEdgeStyle;rounded=0;orthogonalLoop=1;jettySize=auto;html=1;entryX=0.5;entryY=0;entryDx=0;entryDy=0;" edge="1" parent="3" source="6yHkhltPlA_6SUZzHa7a-60" target="6yHkhltPlA_6SUZzHa7a-69">
          <mxGeometry relative="1" as="geometry" />
        </mxCell>
        <mxCell id="6yHkhltPlA_6SUZzHa7a-60" value="Đón/trả học sinh" style="" vertex="1" parent="3">
          <mxGeometry x="80.5" y="232" width="120" height="50" as="geometry" />
        </mxCell>
        <mxCell id="6yHkhltPlA_6SUZzHa7a-69" value="QD1" style="rhombus;whiteSpace=wrap;html=1;fontColor=#000000;fillColor=#ffffc0;strokeColor=#ff0000;" vertex="1" parent="3">
          <mxGeometry x="99.5" y="312" width="80" height="40" as="geometry" />
        </mxCell>
        <mxCell id="6yHkhltPlA_6SUZzHa7a-70" value="no" style="edgeStyle=orthogonalEdgeStyle;html=1;align=left;verticalAlign=bottom;endArrow=open;endSize=8;strokeColor=#ff0000;rounded=0;entryX=0.5;entryY=0;entryDx=0;entryDy=0;" edge="1" source="6yHkhltPlA_6SUZzHa7a-69" parent="3" target="6yHkhltPlA_6SUZzHa7a-78">
          <mxGeometry x="-0.5997" y="16" relative="1" as="geometry">
            <mxPoint x="265.5" y="382" as="targetPoint" />
            <mxPoint x="155" y="362" as="sourcePoint" />
            <Array as="points">
              <mxPoint x="139" y="382" />
            </Array>
            <mxPoint y="-1" as="offset" />
          </mxGeometry>
        </mxCell>
        <mxCell id="6yHkhltPlA_6SUZzHa7a-71" value="yes" style="edgeStyle=orthogonalEdgeStyle;html=1;align=left;verticalAlign=top;endArrow=open;endSize=8;strokeColor=#ff0000;rounded=0;entryX=0;entryY=0.5;entryDx=0;entryDy=0;" edge="1" source="6yHkhltPlA_6SUZzHa7a-69" parent="3" target="6yHkhltPlA_6SUZzHa7a-60">
          <mxGeometry x="-0.7689" y="-20" relative="1" as="geometry">
            <mxPoint x="125.5" y="462" as="targetPoint" />
            <Array as="points">
              <mxPoint x="56" y="332" />
              <mxPoint x="56" y="257" />
            </Array>
            <mxPoint as="offset" />
          </mxGeometry>
        </mxCell>
        <mxCell id="6yHkhltPlA_6SUZzHa7a-78" value="Báo cáo tình trạng&#xa; hoàn thành" style="" vertex="1" parent="3">
          <mxGeometry x="70.5" y="372" width="120" height="50" as="geometry" />
        </mxCell>
        <mxCell id="4" value="Hệ thống" style="swimlane;whiteSpace=wrap;startSize=23;" parent="1" vertex="1">
          <mxGeometry x="724.5" y="128" width="275.5" height="570" as="geometry" />
        </mxCell>
        <mxCell id="6yHkhltPlA_6SUZzHa7a-66" style="edgeStyle=orthogonalEdgeStyle;rounded=0;orthogonalLoop=1;jettySize=auto;html=1;" edge="1" parent="4" source="18" target="6yHkhltPlA_6SUZzHa7a-63">
          <mxGeometry relative="1" as="geometry" />
        </mxCell>
        <mxCell id="18" value="Cập nhật vị trí thời&#xa;gian thực" style="" parent="4" vertex="1">
          <mxGeometry x="77.75" y="72" width="110" height="50" as="geometry" />
        </mxCell>
        <mxCell id="6yHkhltPlA_6SUZzHa7a-63" value="" style="shape=line;html=1;strokeWidth=6;strokeColor=#ff0000;" vertex="1" parent="4">
          <mxGeometry x="102.75" y="152" width="60" height="10" as="geometry" />
        </mxCell>
        <mxCell id="6yHkhltPlA_6SUZzHa7a-92" style="edgeStyle=orthogonalEdgeStyle;rounded=0;orthogonalLoop=1;jettySize=auto;html=1;" edge="1" parent="4" source="6yHkhltPlA_6SUZzHa7a-81">
          <mxGeometry relative="1" as="geometry">
            <mxPoint x="275.5" y="217" as="targetPoint" />
          </mxGeometry>
        </mxCell>
        <mxCell id="6yHkhltPlA_6SUZzHa7a-81" value="Gửi thông báo cho&#xa;phụ huynh" style="" vertex="1" parent="4">
          <mxGeometry x="77.75" y="192" width="120" height="50" as="geometry" />
        </mxCell>
        <mxCell id="6yHkhltPlA_6SUZzHa7a-51" value="Phụ huynh" style="swimlane;whiteSpace=wrap" vertex="1" parent="1">
          <mxGeometry x="1000" y="128" width="275.5" height="570" as="geometry" />
        </mxCell>
        <mxCell id="6yHkhltPlA_6SUZzHa7a-55" value="" style="ellipse;shape=endState;fillColor=#000000;strokeColor=#ff0000" vertex="1" parent="6yHkhltPlA_6SUZzHa7a-51">
          <mxGeometry x="115" y="512" width="30" height="30" as="geometry" />
        </mxCell>
        <mxCell id="6yHkhltPlA_6SUZzHa7a-85" style="edgeStyle=orthogonalEdgeStyle;rounded=0;orthogonalLoop=1;jettySize=auto;html=1;entryX=0.5;entryY=0;entryDx=0;entryDy=0;" edge="1" parent="6yHkhltPlA_6SUZzHa7a-51" source="6yHkhltPlA_6SUZzHa7a-61" target="6yHkhltPlA_6SUZzHa7a-84">
          <mxGeometry relative="1" as="geometry" />
        </mxCell>
        <mxCell id="6yHkhltPlA_6SUZzHa7a-61" value="Theo dõi vị trí xe" style="" vertex="1" parent="6yHkhltPlA_6SUZzHa7a-51">
          <mxGeometry x="70" y="62" width="120" height="50" as="geometry" />
        </mxCell>
        <mxCell id="6yHkhltPlA_6SUZzHa7a-87" style="edgeStyle=orthogonalEdgeStyle;rounded=0;orthogonalLoop=1;jettySize=auto;html=1;entryX=0.5;entryY=0;entryDx=0;entryDy=0;fillColor=#f8cecc;strokeColor=#FF0000;" edge="1" parent="6yHkhltPlA_6SUZzHa7a-51" source="6yHkhltPlA_6SUZzHa7a-84" target="6yHkhltPlA_6SUZzHa7a-86">
          <mxGeometry relative="1" as="geometry" />
        </mxCell>
        <mxCell id="6yHkhltPlA_6SUZzHa7a-84" value="Nhận thông báo khi&#xa;xe đến gần hoặc &#xa;bị trễ" style="" vertex="1" parent="6yHkhltPlA_6SUZzHa7a-51">
          <mxGeometry x="70" y="162" width="120" height="50" as="geometry" />
        </mxCell>
        <mxCell id="6yHkhltPlA_6SUZzHa7a-89" style="edgeStyle=orthogonalEdgeStyle;rounded=0;orthogonalLoop=1;jettySize=auto;html=1;entryX=0.5;entryY=0;entryDx=0;entryDy=0;strokeColor=light-dark(#f60909, #ededed);" edge="1" parent="6yHkhltPlA_6SUZzHa7a-51" source="6yHkhltPlA_6SUZzHa7a-86" target="6yHkhltPlA_6SUZzHa7a-55">
          <mxGeometry relative="1" as="geometry" />
        </mxCell>
        <mxCell id="6yHkhltPlA_6SUZzHa7a-86" value="QD2" style="rhombus;whiteSpace=wrap;html=1;fontColor=#000000;fillColor=#ffffc0;strokeColor=#ff0000;" vertex="1" parent="6yHkhltPlA_6SUZzHa7a-51">
          <mxGeometry x="90" y="265" width="80" height="40" as="geometry" />
        </mxCell>
        <mxCell id="6yHkhltPlA_6SUZzHa7a-90" value="yes" style="text;html=1;align=center;verticalAlign=middle;resizable=0;points=[];autosize=1;strokeColor=none;fillColor=none;" vertex="1" parent="6yHkhltPlA_6SUZzHa7a-51">
          <mxGeometry x="129" y="310" width="40" height="30" as="geometry" />
        </mxCell>
        <mxCell id="6yHkhltPlA_6SUZzHa7a-91" value="no" style="text;html=1;align=center;verticalAlign=middle;resizable=0;points=[];autosize=1;strokeColor=none;fillColor=none;" vertex="1" parent="6yHkhltPlA_6SUZzHa7a-51">
          <mxGeometry x="40" y="280" width="40" height="30" as="geometry" />
        </mxCell>
        <mxCell id="6yHkhltPlA_6SUZzHa7a-67" style="edgeStyle=orthogonalEdgeStyle;rounded=0;orthogonalLoop=1;jettySize=auto;html=1;entryX=1;entryY=0.5;entryDx=0;entryDy=0;" edge="1" parent="1" source="6yHkhltPlA_6SUZzHa7a-63" target="6yHkhltPlA_6SUZzHa7a-60">
          <mxGeometry relative="1" as="geometry" />
        </mxCell>
        <mxCell id="6yHkhltPlA_6SUZzHa7a-68" style="edgeStyle=orthogonalEdgeStyle;rounded=0;orthogonalLoop=1;jettySize=auto;html=1;entryX=0;entryY=0.5;entryDx=0;entryDy=0;" edge="1" parent="1" source="6yHkhltPlA_6SUZzHa7a-63" target="6yHkhltPlA_6SUZzHa7a-61">
          <mxGeometry relative="1" as="geometry" />
        </mxCell>
        <mxCell id="6yHkhltPlA_6SUZzHa7a-88" value="QD1: Có học sinh nào chưa được đón/trả không?&lt;div&gt;QD2: Phụ huynh có nhận được thông báo không?&lt;/div&gt;" style="text;html=1;align=center;verticalAlign=middle;resizable=0;points=[];autosize=1;strokeColor=none;fillColor=none;" vertex="1" parent="1">
          <mxGeometry x="335" y="53" width="290" height="40" as="geometry" />
        </mxCell>
        <mxCell id="6yHkhltPlA_6SUZzHa7a-93" style="edgeStyle=orthogonalEdgeStyle;rounded=0;orthogonalLoop=1;jettySize=auto;html=1;entryX=0.5;entryY=1;entryDx=0;entryDy=0;strokeColor=light-dark(#ed0707, #ededed);" edge="1" parent="1" source="6yHkhltPlA_6SUZzHa7a-86" target="6yHkhltPlA_6SUZzHa7a-81">
          <mxGeometry relative="1" as="geometry" />
        </mxCell>
      </root>
    </mxGraphModel>
  </diagram>
</mxfile>
